# xmcd CD database file
#
# Track frame offsets:
#	150
#	18696
#	34803
#	52018
#	66980
#	84273
#	99135
#	117364
#	128712
#	140149
#	154567
#	169373
#	178367
#	196117
#	214058
#	226448
#	239421
#	254083
#
# Disc length: 3585 seconds
#
# Revision: 1
# Processed by: cddbd v1.5.2PL0 Copyright (c) Steve Scherf et al.
# Submitted via: jetAudio 5
#
DISCID=080dff12
DTITLE=Crystal Gayle - Straight To The Heart(The Best of) CD 1
DYEAR=1900
DGENRE=
TTITLE0=Half The Way
TTITLE1=It's Like We Never Said Goodbye
TTITLE2=Miss The Mississippi
TTITLE3=The Blue Side
TTITLE4=Too Many Lovers
TTITLE5=If You Ever Change Your Mind
TTITLE6=Take It Easy
TTITLE7=Hollywood
TTITLE8=The Woman In Me
TTITLE9=You Never Gave Up On Me
TTITLE10=Livin' In These Troubled Times
TTITLE11=Tennessee
TTITLE12=Our Love Is On The Faultline
TTITLE13=Til I Gain Control Again
TTITLE14=Baby, What About You
TTITLE15=True Love
TTITLE16=The Sound Of Goodbye
TTITLE17=I Don't Want To Lose Your Love
EXTD=
EXTT0=
EXTT1=
EXTT2=
EXTT3=
EXTT4=
EXTT5=
EXTT6=
EXTT7=
EXTT8=
EXTT9=
EXTT10=
EXTT11=
EXTT12=
EXTT13=
EXTT14=
EXTT15=
EXTT16=
EXTT17=
PLAYORDER=
